<svg width="44" height="44" xmlns="http://www.w3.org/2000/svg">
 <title>white google map pin</title>
 <g>
  <title>Layer 1</title>
  <mask id="impact">
   <g>
    <path d="m20.596729,40.331379c-0.901739,-1.099758 -3.152739,-3.24398 -5.002549,-4.765129c-5.48085,-4.50638 -6.22677,-5.15843 -8.45213,-7.38929c-4.10252,-4.113079 -5.84481,-8.24507 -5.83886,-13.84795c0.00291,-2.73505 0.17413,-3.78879 0.87765,-5.40099c1.19352,-2.73514 2.95167,-4.767611 5.19949,-6.0107c1.592,-0.88043 2.37719,-1.27157 5.035769,-1.2876c2.781131,-0.01674 3.36657,0.33631 5.002501,1.3148c1.991159,1.19101 4.04076,3.73631 4.46447,5.54445l0.26156,1.11679l0.64534,-1.53809c3.646599,-8.69128 15.288521,-8.56125 19.339809,0.21599c1.285259,2.78447 1.42622,8.72984 0.286549,12.07879c-1.486507,4.36887 -4.2789,7.69949 -10.733658,12.80291c-4.23328,3.347179 -9.024441,8.41156 -9.3577,9.123051c-0.387041,0.82563 -0.018471,0.129219 -1.728241,-1.957031l0,0l0,0l0,0l0,0l0,0z" id="path2417" fill="#ffffff" stroke="#ffffff"/>
    <text font-weight="bold" fill="black" stroke="black" stroke-dasharray="null" stroke-linejoin="null" stroke-linecap="null" x="21.8" y="29.94436" id="svg_6" font-size="24" font-family="Sans-serif" text-anchor="middle" xml:space="preserve" transform="matrix(1.2078674231325222,0,0,0.9118856533839972,-4.347958731018716,3.1639115690033446) ">$</text>
   </g>
  </mask>
  <rect fill="black" x="0" y="0" width="44" height="44" mask=" url(#impact)"/>
 </g>
</svg>