<svg width="44" height="44" xmlns="http://www.w3.org/2000/svg">
 <g>
  <title>Layer 1</title>
  <path stroke-opacity="0" id="svg_4" d="m21.9972,6.44452c1.69895,0.00134 3.32191,0.28665 4.85909,0.76353l-1.2165,2.03869l8.63575,0l-2.15926,-3.62471l-2.15792,-3.62202l-1.13628,1.90884c-2.12886,-0.75415 -4.42363,-1.17616 -6.82348,-1.17616c-11.04662,0 -20.0003,8.67601 -20.0003,19.38004c0,4.44309 1.55928,8.52455 4.15405,11.79432l3.04122,-2.26243c-2.09848,-2.64286 -3.3606,-5.94073 -3.36751,-9.53056c0.01523,-8.65453 7.24094,-15.65618 16.17115,-15.66953l0,0l0.00001,0l-0.00002,-0.00001zm15.84769,3.87782l-3.04129,2.26377c2.09849,2.64153 3.3606,5.93804 3.36613,9.52928c-0.01515,8.65318 -7.24095,15.65479 -16.17114,15.66946c-1.5828,-0.00261 -3.09654,-0.25179 -4.53973,-0.66836l1.14459,-1.91821l-8.63576,0l2.15793,3.62202l2.15925,3.62607l1.20404,-2.02402c2.04179,0.68856 4.22734,1.07301 6.50967,1.07436c11.04806,-0.0027 20.00034,-8.6787 20.00311,-19.38265c-0.00277,-4.44316 -1.56349,-8.52328 -4.15681,-11.7917l0,0l0,0l0,-0.00001l0.00001,-0.00001z" stroke-width="0" fill="#ffffff" stroke="#000000"/>
 </g>
</svg>