<svg width="44" height="44" xmlns="http://www.w3.org/2000/svg">
 <title>white google map pin</title>
 <g>
  <title>Layer 1</title>
  <g id="svg_1">
   <path stroke-width="2" id="svg_2" clip-rule="evenodd" fill="#ffffff" fill-rule="evenodd" stroke="#ffaaff" stroke-miterlimit="10" d="m13.2575,35.3977c-0.7047,-3.4592 -1.94713,-6.338 -3.45205,-9.0061c-1.1163,-1.979 -2.4094,-3.8056 -3.60581,-5.7248c-0.39945,-0.6407 -0.74414,-1.3175 -1.12798,-1.9824c-0.76736,-1.3295 -1.38957,-2.8709 -1.34996,-4.8704c0.03858,-1.95367 0.60367,-3.52078 1.41839,-4.80216c1.34003,-2.10739 3.58467,-3.83532 6.59646,-4.28938c2.46245,-0.37126 4.77115,0.25601 6.40845,1.2133c1.3378,0.78239 2.374,1.82744 3.1614,3.059c0.8221,1.28552 1.3882,2.80417 1.4355,4.78504c0.0244,1.0149 -0.1417,1.9547 -0.3758,2.7343c-0.2369,0.7891 -0.6179,1.4487 -0.957,2.1532c-0.6618,1.3753 -1.4914,2.6355 -2.3242,3.8964c-2.4801,3.7557 -4.8079,7.5858 -5.8274,12.834l0,0l0,0l0,0z"/>
   <path stroke-width="2" stroke="#ffaaff" id="svg_3" opacity="0.09" clip-rule="evenodd" fill="black" fill-rule="evenodd" d="m13.2655,37.1207c2.3923,-2.1971 3.8412,-4.2897 4.8923,-6.3711c0.7797,-1.5442 1.2823,-3.0752 1.9443,-4.6184c0.2209,-0.5151 0.5182,-1.0284 0.7728,-1.5507c0.5094,-1.0443 1.3208,-2.1474 3.0727,-3.2373c1.7116,-1.0651 3.5257,-1.7043 5.3004,-2.085c2.9185,-0.6261 6.2584,-0.678 9.1359,0.2835c2.353,0.786 3.7206,2.0626 4.2498,3.2513c0.4321,0.9715 0.3893,1.9665 -0.019,2.9649c-0.4265,1.042 -1.2647,2.1098 -2.9287,3.2244c-0.8525,0.5712 -1.7977,1.0244 -2.6615,1.361c-0.874,0.3412 -1.7557,0.5525 -2.6418,0.8057c-1.7291,0.4943 -3.4976,0.8571 -5.2694,1.2193c-5.2776,1.0788 -10.4932,2.2598 -15.8478,4.7523l0,0l0,0l-0.0001,0l0.0001,0.0001z"/>
   <circle stroke-width="2" stroke="#ffaaff" id="svg_4" clip-rule="evenodd" fill="black" fill-rule="evenodd" cx="13.23215" cy="13.79186" r="3.3326"/>
  </g>
  <g>
   <path d="m12.4029,21.8272c-0.332,-0.3719 -1.16077,-1.097 -1.84183,-1.6114c-2.01793,-1.5239 -2.29256,-1.7444 -3.11189,-2.4988c-1.51046,-1.3909 -2.15193,-2.7882 -2.14974,-4.6829c0.00107,-0.9249 0.06411,-1.28124 0.32313,-1.82643c0.43943,-0.92493 1.08674,-1.61224 1.91434,-2.03261c0.58614,-0.29773 0.87523,-0.43 1.85406,-0.43542c1.02395,-0.00566 1.2395,0.11373 1.84181,0.44462c0.7331,0.40276 1.48772,1.26349 1.64372,1.87494l0.0963,0.37766l0.2376,-0.52013c1.3426,-2.93909 5.6289,-2.89512 7.1205,0.07304c0.4732,0.94161 0.5251,2.95213 0.1055,4.08463c-0.5473,1.4774 -1.5754,2.6037 -3.9519,4.3295c-1.5586,1.1319 -3.3226,2.8445 -3.4453,3.0851c-0.1425,0.2792 -0.0068,0.0437 -0.6363,-0.6618l0,0l0,0l0,0l0,0l0,0z" id="path2417" fill="#ff0000"/>
  </g>
 </g>
</svg>